<?xml version="1.0" encoding="utf-8"?>
<!DOCTYPE svg PUBLIC "-//W3C//DTD SVG 20010904//EN" "http://www.w3.org/TR/2001/REC-SVG-20010904/DTD/svg10.dtd">
<svg version="1.0" width="36pt" height="36pt" viewBox="0 0 36 36" preserveAspectRatio="xMidYMid meet" xmlns="http://www.w3.org/2000/svg">
  <g transform="translate(0,36)scale(.075,.075)">
    <path id="path1" d="M 0 -240 l 0 240 240 0 240 0 0 -240 0 -240 -240 0 -240 0 0 240 z " />
    <path id="path2" d="M 302 -418 c 29 18 73 42 96 52 40 18 42 21 42 63 0 36 -4 46 -20 50 -18 5 -20 14 -20 79 0 67 2 74 20 74 16 0 20 7 20 35 l 0 35 -200 0 -200 0 0 -35 c 0 -28 4 -35 20 -35 18 0 20 -7 20 -74 0 -65 -2 -74 -20 -79 -16 -4 -20 -14 -20 -49 l 0 -44 68 -33 c 37 -18 79 -41 93 -52 32 -25 38 -24 101 13 z " fill="#FFF" />
    <path id="path3" d="M 217 -394 c -4 4 -7 20 -7 36 0 25 4 28 31 28 28 0 30 -2 27 -32 -2 -24 -8 -34 -23 -36 -12 -2 -24 0 -28 4 z " />
    <path id="path4" d="M 140 -350 l -35 19 33 1 c 20 0 35 -6 39 -15 9 -24 1 -25 -37 -5 z " />
    <path id="path5" d="M 300 -355 c 0 19 20 28 51 23 19 -3 18 -5 -14 -20 -32 -15 -37 -16 -37 -3 z " />
    <path id="path6" d="M 113 -175 c 0 44 2 61 4 37 2 -23 2 -59 0 -80 -2 -20 -4 -1 -4 43 z " />
    <path id="path7" d="M 150 -210 c 0 36 2 40 25 40 22 0 25 4 25 35 0 34 1 35 40 35 39 0 40 -1 40 -35 0 -31 3 -35 25 -35 23 0 25 -4 25 -40 l 0 -40 -90 0 -90 0 0 40 z " />
    <path id="path8" d="M 363 -175 c 0 44 2 61 4 37 2 -23 2 -59 0 -80 -2 -20 -4 -1 -4 43 z " />
    <path id="path9" d="M 150 -120 c 0 11 4 20 10 20 6 0 10 -9 10 -20 0 -11 -4 -20 -10 -20 -6 0 -10 9 -10 20 z " />
    <path id="path10" d="M 310 -120 c 0 11 4 20 10 20 6 0 10 -9 10 -20 0 -11 -4 -20 -10 -20 -6 0 -10 9 -10 20 z " />
  </g>
</svg>